{
  "accessors": [
    {
      "bufferView": 2,
      "componentType": 5126,
      "count": 48677,
      "max": [
        5.796663761138916,
        43.4100341796875,
        4.429964542388916
      ],
      "min": [
        -5.877199649810791,
        1.2846171855926514,
        -6.473111152648926
      ],
      "type": "VEC3"
    },
    {
      "bufferView": 2,
      "byteOffset": 584124,
      "componentType": 5126,
      "count": 48677,
      "max": [
        0.9999946355819702,
        1.0,
        0.9999943971633911
      ],
      "min": [
        -0.9999943971633911,
        -1.0,
        -0.9999997019767761
      ],
      "type": "VEC3"
    },
    {
      "bufferView": 3,
      "componentType": 5126,
      "count": 48677,
      "max": [
        1.0,
        1.0,
        1.0,
        1.0
      ],
      "min": [
        -0.9999911785125732,
        -1.0,
        -1.0,
        -1.0
      ],
      "type": "VEC4"
    },
    {
      "bufferView": 3,
      "byteOffset": 778832,
      "componentType": 5126,
      "count": 48677,
      "max": [
        1.0,
        1.0,
        1.0,
        1.0
      ],
      "min": [
        0.0,
        0.0,
        0.0,
        1.0
      ],
      "type": "VEC4"
    },
    {
      "bufferView": 1,
      "componentType": 5126,
      "count": 48677,
      "max": [
        0.9847800731658936,
        0.9647433757781982
      ],
      "min": [
        0.0,
        0.0
      ],
      "type": "VEC2"
    },
    {
      "bufferView": 1,
      "byteOffset": 389416,
      "componentType": 5126,
      "count": 48677,
      "max": [
        0.5263412594795227,
        0.6636096835136414
      ],
      "min": [
        0.0,
        0.0
      ],
      "type": "VEC2"
    },
    {
      "bufferView": 1,
      "byteOffset": 778832,
      "componentType": 5126,
      "count": 48677,
      "max": [
        0.5263412594795227,
        0.6636096835136414
      ],
      "min": [
        0.0,
        0.0
      ],
      "type": "VEC2"
    },
    {
      "bufferView": 1,
      "byteOffset": 1168248,
      "componentType": 5126,
      "count": 48677,
      "max": [
        0.5263412594795227,
        0.6636096835136414
      ],
      "min": [
        0.0,
        0.0
      ],
      "type": "VEC2"
    },
    {
      "bufferView": 0,
      "componentType": 5125,
      "count": 153603,
      "type": "SCALAR"
    },
    {
      "bufferView": 2,
      "byteOffset": 1168248,
      "componentType": 5126,
      "count": 534,
      "max": [
        5.029721260070801,
        11.87480354309082,
        3.663022041320801
      ],
      "min": [
        -5.110278606414795,
        9.5367431640625e-06,
        -5.616022109985352
      ],
      "type": "VEC3"
    },
    {
      "bufferView": 2,
      "byteOffset": 1174656,
      "componentType": 5126,
      "count": 534,
      "max": [
        0.9999654293060303,
        1.0,
        0.9999474883079529
      ],
      "min": [
        -0.9999474883079529,
        -1.0,
        -0.9999474287033081
      ],
      "type": "VEC3"
    },
    {
      "bufferView": 3,
      "byteOffset": 1557664,
      "componentType": 5126,
      "count": 534,
      "max": [
        0.8901960849761963,
        0.8901960849761963,
        0.8901960849761963,
        1.0
      ],
      "min": [
        0.4117647111415863,
        0.4117647111415863,
        0.4117647111415863,
        1.0
      ],
      "type": "VEC4"
    },
    {
      "bufferView": 1,
      "byteOffset": 1557664,
      "componentType": 5126,
      "count": 534,
      "max": [
        0.5206265449523926,
        0.3527279794216156
      ],
      "min": [
        0.0,
        0.0
      ],
      "type": "VEC2"
    },
    {
      "bufferView": 1,
      "byteOffset": 1561936,
      "componentType": 5126,
      "count": 534,
      "max": [
        0.9734106063842773,
        0.05005168914794922
      ],
      "min": [
        0.0,
        0.0
      ],
      "type": "VEC2"
    },
    {
      "bufferView": 0,
      "byteOffset": 614412,
      "componentType": 5125,
      "count": 2274,
      "type": "SCALAR"
    }
  ],
  "asset": {
    "extras": {
      "author": "selvinraj (https://sketchfab.com/selvinraj)",
      "license": "CC-BY-4.0 (http://creativecommons.org/licenses/by/4.0/)",
      "source": "https://sketchfab.com/3d-models/rocket-isro-a0cb59271cf540bfba324d7c3034d3d3",
      "title": "Rocket  ISRO"
    },
    "generator": "Sketchfab-15.30.0",
    "version": "2.0"
  },
  "bufferViews": [
    {
      "buffer": 0,
      "byteLength": 623508,
      "name": "floatBufferViews",
      "target": 34963
    },
    {
      "buffer": 0,
      "byteLength": 1566208,
      "byteOffset": 623508,
      "byteStride": 8,
      "name": "floatBufferViews",
      "target": 34962
    },
    {
      "buffer": 0,
      "byteLength": 1181064,
      "byteOffset": 2189716,
      "byteStride": 12,
      "name": "floatBufferViews",
      "target": 34962
    },
    {
      "buffer": 0,
      "byteLength": 1566208,
      "byteOffset": 3370780,
      "byteStride": 16,
      "name": "floatBufferViews",
      "target": 34962
    }
  ],
  "buffers": [
    {
      "byteLength": 4936988,
      "uri": "scene.bin"
    }
  ],
  "images": [
    {
      "uri": "textures/Matal_solid_paint_white_baseColor.png"
    },
    {
      "uri": "textures/Matal_solid_paint_white_metallicRoughness.png"
    },
    {
      "uri": "textures/Matal_solid_paint_white_normal.jpeg"
    }
  ],
  "materials": [
    {
      "doubleSided": true,
      "name": "Matal_solid_paint_white",
      "normalTexture": {
        "index": 2,
        "texCoord": 2
      },
      "pbrMetallicRoughness": {
        "baseColorTexture": {
          "index": 0
        },
        "metallicRoughnessTexture": {
          "index": 1,
          "texCoord": 1
        }
      }
    },
    {
      "doubleSided": true,
      "name": "material",
      "pbrMetallicRoughness": {
        "baseColorFactor": [
          0.359186,
          0.00966216,
          0.0112252,
          1.0
        ],
        "metallicFactor": 0.0,
        "roughnessFactor": 0.5
      }
    }
  ],
  "meshes": [
    {
      "name": "Object_0",
      "primitives": [
        {
          "attributes": {
            "COLOR_0": 3,
            "NORMAL": 1,
            "POSITION": 0,
            "TANGENT": 2,
            "TEXCOORD_0": 4,
            "TEXCOORD_1": 5,
            "TEXCOORD_2": 6,
            "TEXCOORD_3": 7
          },
          "indices": 8,
          "material": 0,
          "mode": 4
        }
      ]
    },
    {
      "name": "Object_1",
      "primitives": [
        {
          "attributes": {
            "COLOR_0": 11,
            "NORMAL": 10,
            "POSITION": 9,
            "TEXCOORD_0": 12,
            "TEXCOORD_1": 13
          },
          "indices": 14,
          "material": 1,
          "mode": 4
        }
      ]
    }
  ],
  "nodes": [
    {
      "children": [
        1
      ],
      "matrix": [
        1.0,
        0.0,
        0.0,
        0.0,
        0.0,
        2.220446049250313e-16,
        -1.0,
        0.0,
        0.0,
        1.0,
        2.220446049250313e-16,
        0.0,
        0.0,
        0.0,
        0.0,
        1.0
      ],
      "name": "Sketchfab_model"
    },
    {
      "children": [
        2
      ],
      "name": "root"
    },
    {
      "children": [
        3
      ],
      "matrix": [
        1.0,
        0.0,
        0.0,
        0.0,
        0.0,
        2.220446049250313e-16,
        1.0,
        0.0,
        0.0,
        -1.0,
        2.220446049250313e-16,
        0.0,
        0.0,
        0.0,
        0.0,
        1.0
      ],
      "name": "GLTF_SceneRootNode"
    },
    {
      "children": [
        4,
        5
      ],
      "matrix": [
        1.0,
        0.0,
        0.0,
        0.0,
        0.0,
        1.0,
        0.0,
        0.0,
        0.0,
        0.0,
        1.0,
        0.0,
        -1.076395034790039,
        0.0,
        -0.21792364120483398,
        1.0
      ],
      "name": "ISRO GSLV MK III Rocket Launch Vehicle_0"
    },
    {
      "mesh": 0,
      "name": "Object_4"
    },
    {
      "mesh": 1,
      "name": "Object_5"
    }
  ],
  "samplers": [
    {
      "magFilter": 9729,
      "minFilter": 9987,
      "wrapS": 10497,
      "wrapT": 10497
    }
  ],
  "scene": 0,
  "scenes": [
    {
      "name": "Sketchfab_Scene",
      "nodes": [
        0
      ]
    }
  ],
  "textures": [
    {
      "sampler": 0,
      "source": 0
    },
    {
      "sampler": 0,
      "source": 1
    },
    {
      "sampler": 0,
      "source": 2
    }
  ]
}
